name D:\school\WTK\thesis\model\3dpredictsim\Results\MidTarsalJoint\Fal_s1_bCst_PF_Natali2010_ls150_MT_nl_Gefen2002_MTP_Mf1_spx10_ig23_v0.mot
datacolumns 128
datarows 4
range 0.00000000 0.03279388
endheader
time	pelvis_tilt	pelvis_list	pelvis_rotation	pelvis_tx	pelvis_ty	pelvis_tz	hip_flexion_l	hip_adduction_l	hip_rotation_l	hip_flexion_r	hip_adduction_r	hip_rotation_r	knee_angle_l	knee_angle_r	ankle_angle_l	ankle_angle_r	subtalar_angle_l	subtalar_angle_r	mtj_angle_l	mtj_angle_r	mtp_angle_l	mtp_angle_r	lumbar_extension	lumbar_bending	lumbar_rotation	arm_flex_l	arm_add_l	arm_rot_l	arm_flex_r	arm_add_r	arm_rot_r	elbow_flex_l	elbow_flex_r	pro_sup_l	pro_sup_r	glut_med1_l/activation	glut_med2_l/activation	glut_med3_l/activation	glut_min1_l/activation	glut_min2_l/activation	glut_min3_l/activation	semimem_l/activation	semiten_l/activation	bifemlh_l/activation	bifemsh_l/activation	sar_l/activation	add_long_l/activation	add_brev_l/activation	add_mag1_l/activation	add_mag2_l/activation	add_mag3_l/activation	tfl_l/activation	pect_l/activation	grac_l/activation	glut_max1_l/activation	glut_max2_l/activation	glut_max3_l/activation	iliacus_l/activation	psoas_l/activation	quad_fem_l/activation	gem_l/activation	peri_l/activation	rect_fem_l/activation	vas_med_l/activation	vas_int_l/activation	vas_lat_l/activation	med_gas_l/activation	lat_gas_l/activation	soleus_l/activation	tib_post_l/activation	flex_dig_l/activation	flex_hal_l/activation	tib_ant_l/activation	per_brev_l/activation	per_long_l/activation	per_tert_l/activation	ext_dig_l/activation	ext_hal_l/activation	ercspn_l/activation	intobl_l/activation	extobl_l/activation	glut_med1_r/activation	glut_med2_r/activation	glut_med3_r/activation	glut_min1_r/activation	glut_min2_r/activation	glut_min3_r/activation	semimem_r/activation	semiten_r/activation	bifemlh_r/activation	bifemsh_r/activation	sar_r/activation	add_long_r/activation	add_brev_r/activation	add_mag1_r/activation	add_mag2_r/activation	add_mag3_r/activation	tfl_r/activation	pect_r/activation	grac_r/activation	glut_max1_r/activation	glut_max2_r/activation	glut_max3_r/activation	iliacus_r/activation	psoas_r/activation	quad_fem_r/activation	gem_r/activation	peri_r/activation	rect_fem_r/activation	vas_med_r/activation	vas_int_r/activation	vas_lat_r/activation	med_gas_r/activation	lat_gas_r/activation	soleus_r/activation	tib_post_r/activation	flex_dig_r/activation	flex_hal_r/activation	tib_ant_r/activation	per_brev_r/activation	per_long_r/activation	per_tert_r/activation	ext_dig_r/activation	ext_hal_r/activation	ercspn_r/activation	intobl_r/activation	extobl_r/activation	
          0.00000000	         -2.92842003	         -0.98196755	          4.30987032	          0.00000000	          0.92297019	         -0.00236006	        -14.87689239	          0.93167441	          8.95389795	         25.61861488	          3.19038208	         -0.35777168	        -11.94039941	         -7.30618724	         -5.11644360	          3.05007439	          9.96877448	         -3.45089023	          9.20362551	          1.47442533	          8.52350025	          1.61131922	         -1.93352910	         -0.02876830	         -1.47034273	          5.05904542	        -13.46609969	         15.90905660	         -4.84516984	        -13.45261519	          8.89899991	         30.81396718	         15.42431095	         86.51662706	         86.51662706	          0.33179559	          0.19074914	          0.09765996	          0.30152797	          0.27934439	          0.18258279	          0.05000010	          0.05000000	          0.05000000	          0.05000003	          0.11545199	          0.05000000	          0.05000000	          0.05000001	          0.05000004	          0.05000002	          0.33372779	          0.05000007	          0.05000002	          0.06613692	          0.05000015	          0.05000003	          0.32505632	          0.52613212	          0.05000000	          0.07276920	          0.08260952	          0.18511675	          0.05000013	          0.05000004	          0.05000003	          0.29437155	          0.37897412	          0.35308631	          0.26264936	          0.24021590	          0.30637606	          0.05000000	          0.18834036	          0.22820953	          0.05000000	          0.05000000	          0.05910962	          0.05000000	          0.06583297	          0.10086560	          0.05910940	          0.05910939	          0.05000000	          0.05910940	          0.05910940	          0.05000021	          0.12378407	          0.05910942	          0.13596924	          0.05000002	          0.05000001	          0.19074906	          0.32403654	          0.13202939	          0.19384809	          0.11501601	          0.05000001	          0.05080816	          0.12933018	          0.05000006	          0.05535215	          0.08626821	          0.07771581	          0.07725522	          0.45523360	          0.19497611	          0.07576076	          0.05000019	          0.11408883	          0.11741785	          0.10316298	          0.05000000	          0.05000000	          0.05000000	          0.06351059	          0.05910954	          0.05910953	          0.52617376	          0.24633681	          0.13816132	          0.16049181	          0.56001573	          0.05000001	          0.05000000	          0.09825664	          0.08260947	
          0.01093129	         -2.93017651	         -1.05757952	          4.48225618	          0.01634071	          0.92275584	         -0.00211907	        -14.92002994	          0.67072765	          8.85884622	         24.99835372	          3.57938213	         -0.20402413	        -13.38978164	         -7.75867343	         -5.52534776	          2.22332441	         11.03000556	         -3.92948660	          7.26011142	          1.73367864	         11.74507741	          1.07334773	         -1.75354380	          0.16394727	         -1.53154651	          4.79233265	        -13.48215341	         16.20193654	         -5.62728027	        -13.44970710	          8.68409719	         31.74617091	         15.21071179	         86.51662706	         86.51662706	          0.28066224	          0.16135259	          0.08260949	          0.25505920	          0.23629435	          0.15444478	          0.05000045	          0.05388721	          0.05910939	          0.05000002	          0.09765958	          0.08100190	          0.05000004	          0.05910949	          0.05910868	          0.05910929	          0.28229667	          0.05000006	          0.05910974	          0.05910964	          0.05910955	          0.05910949	          0.27496156	          0.47191893	          0.06987843	          0.06155479	          0.06987849	          0.15658822	          0.05000017	          0.09393608	          0.12652561	          0.25346570	          0.32184941	          0.31238437	          0.22217220	          0.20319598	          0.25916014	          0.05000007	          0.23834895	          0.20667932	          0.06011792	          0.12729741	          0.05000018	          0.07078839	          0.06853857	          0.08532110	          0.05000000	          0.05000000	          0.10206437	          0.05000000	          0.05000000	          0.05000000	          0.10470759	          0.05000001	          0.11501489	          0.05000000	          0.06987852	          0.16135254	          0.34671497	          0.33992408	          0.20297358	          0.13972438	          0.05000002	          0.08260968	          0.12972151	          0.05000008	          0.09395692	          0.13616188	          0.06987843	          0.06987843	          0.53944903	          0.16492815	          0.06408520	          0.06987842	          0.09650657	          0.11780417	          0.08726468	          0.06987845	          0.06987849	          0.07262518	          0.05372291	          0.05000011	          0.05000010	          0.65256198	          0.37602007	          0.17959138	          0.13575826	          0.62504832	          0.13386400	          0.05000000	          0.08311421	          0.06987844	
          0.02186259	         -2.92744417	         -1.16120713	          4.62175511	          0.03292761	          0.92256615	         -0.00189157	        -14.89265568	          0.39806803	          8.73915229	         24.30518606	          3.85873605	         -0.02861009	        -14.93349143	         -8.27522518	         -5.97476519	          1.38247543	         12.05123234	         -4.38421917	          4.98043935	          2.20422238	         15.34561004	          0.63864942	         -1.55591971	          0.39196457	         -1.58481809	          4.45783123	        -13.49526146	         16.44729339	         -6.41022625	        -13.45698233	          8.50054658	         32.65781219	         15.00694942	         86.51662706	         86.51662706	          0.34366037	          0.13648638	          0.06987845	          0.35273390	          0.19987879	          0.13064314	          0.05000006	          0.05000000	          0.05000000	          0.05000002	          0.08260917	          0.17091405	          0.08660780	          0.05000010	          0.05000009	          0.05000003	          0.23879166	          0.10845160	          0.05000029	          0.05000022	          0.05000013	          0.05000008	          0.23258698	          0.47181791	          0.05910940	          0.05206852	          0.05910944	          0.13245625	          0.05747108	          0.07945960	          0.10702667	          0.21440385	          0.27224888	          0.27565878	          0.18793302	          0.17188125	          0.21922071	          0.17343814	          0.24123676	          0.17482777	          0.45632362	          0.20775478	          0.05000000	          0.07132560	          0.05797602	          0.07217218	          0.30753173	          0.28145721	          0.29357678	          0.40518121	          0.28706258	          0.25767155	          0.11522929	          0.11559776	          0.12073658	          0.07764770	          0.05910948	          0.13648634	          0.29328238	          0.28753804	          0.17169313	          0.16342782	          0.05000002	          0.06987865	          0.13648676	          0.05000002	          0.13597601	          0.11517788	          0.05910940	          0.05910940	          0.45631400	          0.13951091	          0.08260972	          0.05910939	          0.08163385	          0.09964926	          0.07381623	          0.05910941	          0.05910944	          0.06143284	          0.05000000	          0.05000000	          0.05000003	          0.69262182	          0.31807124	          0.15191438	          0.50007792	          0.71027543	          0.25326631	          0.06659924	          0.12660528	          0.05910940	
          0.03279388	         -2.92243237	         -1.27487471	          4.71907239	          0.04947822	          0.92248831	         -0.00163426	        -14.69542277	          0.13999133	          8.60688123	         23.63111114	          4.11634550	          0.14476424	        -16.71883770	         -8.74164531	         -6.53124544	          0.12611420	         13.08600715	         -4.80359624	          2.58635316	          2.93287538	         18.95742691	          0.25294364	         -1.37109229	          0.63912102	         -1.63277791	          4.10365245	        -13.50717153	         16.65977847	         -7.12779621	        -13.46496451	          8.35661518	         33.50793168	         14.77236512	         86.51662706	         86.51662706	          0.29069853	          0.11545233	          0.05910942	          0.29837373	          0.16907527	          0.11050959	          0.05000171	          0.05000003	          0.05000002	          0.05000001	          0.06987819	          0.23515417	          0.34156883	          0.05000004	          0.05000034	          0.11805740	          0.20199124	          0.09173804	          0.05000002	          0.05000007	          0.05000005	          0.05000004	          0.19674277	          0.44085207	          0.05000000	          0.05000001	          0.05000003	          0.11204329	          0.11462494	          0.11545222	          0.11123173	          0.18136186	          0.23029233	          0.23317673	          0.15897047	          0.14539246	          0.18543638	          0.33111012	          0.20405953	          0.14788489	          0.61764707	          0.27550434	          0.05000000	          0.09983661	          0.05000000	          0.06104965	          0.41089157	          0.39858805	          0.34289069	          0.34273835	          0.25157213	          0.21796158	          0.09747120	          0.11702376	          0.10212976	          0.06568134	          0.05000006	          0.11545229	          0.24808434	          0.24322532	          0.25941954	          0.21258183	          0.05000001	          0.05910960	          0.11545288	          0.25366236	          0.22613413	          0.21967753	          0.05000000	          0.05000000	          0.38599099	          0.11801075	          0.06987866	          0.05000000	          0.12328129	          0.17938951	          0.12377406	          0.05000000	          0.05000003	          0.05196536	          0.05000000	          0.05000001	          0.05000000	          0.79439852	          0.28210488	          0.15757211	          0.71081922	          0.75263445	          0.41040187	          0.09701615	          0.10709402	          0.05000000	
